<svg version="1.1" id="Layer_1" xmlns="http://www.w3.org/2000/svg" xmlns:xlink="http://www.w3.org/1999/xlink" x="0px" y="0px"
	 width="100%" viewBox="0 0 900 810" enable-background="new 0 0 900 810" xml:space="preserve">
<path fill="#FFFFFF" opacity="1.000000" stroke="none" 
	d="
M542.000000,811.000000 
	C361.333374,811.000000 181.166779,811.000000 1.000121,811.000000 
	C1.000081,541.000122 1.000081,271.000275 1.000040,1.000302 
	C300.999786,1.000201 600.999573,1.000201 900.999512,1.000101 
	C900.999634,270.999695 900.999634,540.999390 900.999817,810.999512 
	C781.500000,811.000000 662.000000,811.000000 542.000000,811.000000 
M136.998230,439.500000 
	C136.998230,488.155487 136.903259,536.811340 137.088043,585.466125 
	C137.120316,593.967407 137.745041,602.559326 139.110443,610.944214 
	C142.519470,631.878906 153.642593,648.328552 170.463196,660.864014 
	C184.690552,671.466858 200.714264,676.157349 218.680008,676.131348 
	C374.479797,675.906250 530.280151,675.935913 686.080139,676.089905 
	C704.312500,676.107910 720.340454,670.141479 734.121643,659.086182 
	C754.473572,642.759766 764.839417,620.717529 764.891479,594.703674 
	C765.138184,471.397156 765.037964,348.089813 764.916077,224.782898 
	C764.908325,216.949951 764.150330,209.041733 762.914185,201.300629 
	C759.535339,180.142014 748.317810,163.571732 731.347107,150.974915 
	C717.262390,140.520248 701.365906,135.844467 683.568848,135.869675 
	C526.935852,136.091507 370.302460,136.022507 213.669220,135.938385 
	C204.194412,135.933289 195.200256,137.955200 186.796066,141.801270 
	C154.474518,156.592880 137.556808,182.428925 137.215408,217.549210 
	C136.499512,291.193207 136.998230,364.849030 136.998230,439.500000 
z"/>
<path fill="#430418" opacity="1.000000" stroke="none" 
	d="
M136.998230,439.000000 
	C136.998230,364.849030 136.499512,291.193207 137.215408,217.549210 
	C137.556808,182.428925 154.474518,156.592880 186.796066,141.801270 
	C195.200256,137.955200 204.194412,135.933289 213.669220,135.938385 
	C370.302460,136.022507 526.935852,136.091507 683.568848,135.869675 
	C701.365906,135.844467 717.262390,140.520248 731.347107,150.974915 
	C748.317810,163.571732 759.535339,180.142014 762.914185,201.300629 
	C764.150330,209.041733 764.908325,216.949951 764.916077,224.782898 
	C765.037964,348.089813 765.138184,471.397156 764.891479,594.703674 
	C764.839417,620.717529 754.473572,642.759766 734.121643,659.086182 
	C720.340454,670.141479 704.312500,676.107910 686.080139,676.089905 
	C530.280151,675.935913 374.479797,675.906250 218.680008,676.131348 
	C200.714264,676.157349 184.690552,671.466858 170.463196,660.864014 
	C153.642593,648.328552 142.519470,631.878906 139.110443,610.944214 
	C137.745041,602.559326 137.120316,593.967407 137.088043,585.466125 
	C136.903259,536.811340 136.998230,488.155487 136.998230,439.000000 
M740.998657,390.500000 
	C740.998657,366.839294 740.260742,343.146088 741.300049,319.531128 
	C741.845764,307.130737 737.885315,299.106537 728.323425,291.333710 
	C691.681335,261.547516 650.028442,246.016296 602.987488,245.218552 
	C586.023438,244.930862 569.116699,246.985687 552.726379,251.690277 
	C542.447632,254.640640 532.372620,258.300842 521.485107,261.879608 
	C523.165344,263.708557 523.910034,264.578400 524.715637,265.387543 
	C553.047424,293.843933 587.543091,307.505493 627.449829,308.073090 
	C645.506165,308.329926 660.389832,315.132111 671.720459,329.289062 
	C682.378052,342.605072 684.523254,357.973236 682.570251,374.805267 
	C680.140076,374.805267 678.002014,374.805298 675.863953,374.805298 
	C598.049805,374.805359 520.235413,374.896423 442.421570,374.745972 
	C421.049835,374.704651 403.030365,382.369537 388.305756,397.427612 
	C375.406677,410.618805 368.781677,426.720367 367.490540,445.308685 
	C366.214844,463.674896 368.611267,480.943878 380.219513,495.758118 
	C386.873627,504.249939 394.584686,511.906189 401.592957,520.131958 
	C403.975006,522.927856 406.464386,523.991760 410.154755,523.988464 
	C518.461365,523.891113 626.768005,523.909607 735.074646,523.909607 
	C736.856934,523.909607 738.639160,523.909607 740.998657,523.909607 
	C740.998657,479.374969 740.998657,435.437500 740.998657,390.500000 
M264.500000,159.001160 
	C248.504837,159.039505 232.496048,158.669769 216.517395,159.203018 
	C185.320557,160.244080 161.077820,185.551285 161.011505,216.648132 
	C160.959976,240.809937 160.912933,264.972748 161.135925,289.132599 
	C161.158554,291.584534 162.423004,294.681549 164.180344,296.359283 
	C181.557495,312.949188 201.288193,326.093414 223.415161,335.520630 
	C229.301758,338.028625 235.377808,340.091980 241.342590,342.350281 
	C242.299103,340.691742 242.884872,339.697021 243.450989,338.691284 
	C256.982117,314.652283 274.154785,293.605072 295.268524,275.826721 
	C334.131653,243.102890 379.044739,225.562958 429.660034,222.226822 
	C455.642151,220.514282 479.680695,225.708069 500.696167,241.748917 
	C503.587189,243.955582 505.704742,244.326019 509.075165,242.725433 
	C534.941284,230.441727 562.294434,223.500076 590.844604,222.270645 
	C645.511902,219.916519 694.605957,235.618134 737.862671,269.277924 
	C738.686401,269.918884 739.670837,270.353302 740.926453,271.086151 
	C740.926453,251.368912 740.998840,232.223038 740.856812,213.078751 
	C740.832458,209.793015 740.136963,206.453903 739.340332,203.241409 
	C732.620178,176.142792 709.993347,159.011429 680.918152,159.008163 
	C542.445435,158.992599 403.972717,159.001175 264.500000,159.001160 
M421.776306,547.101501 
	C422.112183,548.147339 422.274048,549.293152 422.809296,550.224365 
	C437.566986,575.899841 447.356659,603.283020 451.201294,632.706848 
	C452.075500,639.397400 452.783020,646.109680 453.589020,652.997925 
	C455.932159,652.997925 457.924225,652.997925 459.916290,652.997925 
	C509.064117,652.997925 558.211914,652.997986 607.359741,652.997925 
	C632.350159,652.997864 657.341309,653.116943 682.330811,652.968262 
	C715.991699,652.767944 740.986328,627.552612 740.997131,594.018311 
	C741.001587,580.190308 740.997925,566.362244 740.997925,552.534241 
	C740.997925,550.764954 740.997925,548.995605 740.997925,546.899231 
	C634.406067,546.899231 528.474609,546.899231 421.776306,547.101501 
M434.320282,351.589264 
	C447.219818,351.589264 460.119324,351.589264 472.847137,351.589264 
	C472.847137,340.370178 472.847137,330.301208 472.847137,319.753571 
	C462.336487,319.753571 452.136169,319.753571 441.944550,319.753571 
	C442.293243,307.342743 449.036255,300.581665 463.873413,297.573730 
	C459.164032,292.790894 453.709137,289.131775 447.309814,289.107391 
	C437.255035,289.069061 426.989929,289.259521 417.172424,291.182983 
	C368.029633,300.811066 328.843414,344.622528 325.025208,394.303558 
	C323.816071,410.036438 324.360291,425.906738 324.181366,441.715057 
	C324.087402,450.016083 324.164795,458.319061 324.164795,466.375031 
	C331.381378,468.934998 338.152466,471.336884 344.918671,473.737061 
	C344.918671,461.132843 343.930145,448.769775 345.095642,436.613190 
	C349.365082,392.080536 388.595276,354.759003 434.320282,351.589264 
M161.001373,339.511658 
	C161.001373,401.201508 161.001373,462.891357 161.001373,525.996277 
	C167.490021,521.662415 172.938095,518.246765 178.151001,514.503601 
	C201.958801,497.408051 215.484619,474.957825 215.004944,444.845428 
	C214.688049,424.951599 218.050858,405.470734 223.707047,386.413116 
	C225.961578,378.816803 228.542480,371.317383 231.111450,363.350067 
	C205.464172,354.982361 182.577255,341.881500 161.001373,324.971954 
	C161.001373,330.200867 161.001373,334.359955 161.001373,339.511658 
M261.060242,414.722900 
	C261.327148,413.590302 261.613434,412.461914 261.858185,411.324554 
	C280.376007,325.259705 355.035339,264.964691 442.839111,265.167511 
	C467.054810,265.223450 489.235229,282.617310 494.824799,306.310425 
	C495.995911,311.274597 496.289520,316.514526 496.416382,321.641541 
	C496.657532,331.389954 496.486237,341.148560 496.486237,351.167480 
	C499.668488,351.167480 502.186646,350.914032 504.632599,351.226257 
	C508.399475,351.707123 510.656982,350.452362 511.380249,346.631104 
	C513.070801,337.699493 516.189941,328.786713 516.268860,319.844604 
	C516.632080,278.706451 482.896423,244.828857 441.727051,245.278580 
	C382.106873,245.929825 331.668518,268.262787 291.221893,312.153473 
	C264.050964,341.638092 246.911438,376.400146 241.003830,416.119049 
	C238.228577,434.777954 237.505081,453.742096 235.858887,472.487305 
	C243.062958,470.140533 250.405060,467.748810 256.759949,465.678650 
	C258.194214,448.674744 259.589722,432.130676 261.060242,414.722900 
M654.036926,351.088135 
	C658.005798,351.190887 657.028564,349.321472 655.705811,347.112488 
	C648.856262,335.674042 638.318726,331.278442 625.506104,331.204468 
	C595.767761,331.032776 568.127258,323.176086 542.319336,308.562531 
	C541.406311,308.045593 540.379456,307.729614 540.146118,307.631439 
	C538.864685,322.063568 537.596436,336.347504 536.287354,351.090912 
	C574.653748,351.090912 613.892334,351.090912 654.036926,351.088135 
M316.767273,586.842651 
	C318.263641,586.842712 319.760010,586.843567 321.256378,586.842651 
	C353.309845,586.822693 377.332642,558.973877 372.668884,527.124268 
	C367.299561,527.124268 361.919739,527.124268 355.936096,527.124268 
	C357.173584,539.582458 355.224518,550.793884 346.027924,559.897583 
	C336.873108,568.959839 325.517212,570.518494 313.161835,569.801025 
	C313.161835,575.063904 313.022705,579.697021 313.282806,584.307617 
	C313.332977,585.197205 314.946289,585.998718 316.767273,586.842651 
M226.996445,622.472473 
	C226.996445,624.906189 226.996445,627.339905 226.996445,629.703369 
	C265.378479,633.595825 291.339813,602.876160 286.656494,570.154175 
	C281.272552,570.154175 275.885925,570.154175 270.037842,570.154175 
	C270.993530,582.651489 269.058105,593.975403 259.846893,603.037476 
	C250.694244,612.041809 239.286667,613.705383 226.996445,612.994629 
	C226.996445,616.213928 226.996445,618.857056 226.996445,622.472473 
M194.123978,569.831604 
	C190.853683,569.831604 187.583374,569.831604 184.300537,569.831604 
	C184.300537,575.744324 184.300537,581.135803 184.300537,586.493713 
	C220.769592,589.832031 248.964966,561.405029 243.486923,527.099670 
	C238.099121,527.099670 232.706940,527.099670 227.345581,527.099670 
	C224.636307,556.461060 217.091263,566.382629 194.123978,569.831604 
M298.684509,376.208801 
	C284.919830,403.179413 279.597656,431.810150 281.453033,462.215210 
	C288.084259,462.215210 294.340851,462.215210 300.691254,462.215210 
	C302.584503,429.202637 297.011749,395.848541 307.400238,363.449554 
	C306.956238,363.344818 306.512207,363.240082 306.068176,363.135315 
	C303.710358,367.267426 301.352509,371.399536 298.684509,376.208801 
M270.157135,539.281189 
	C270.254395,540.712708 270.351685,542.144226 270.443878,543.500854 
	C310.814606,547.503662 332.480286,514.348083 329.792145,489.684692 
	C324.549133,488.611969 319.126678,487.502563 313.075287,486.264465 
	C314.012665,498.973724 310.941650,509.457214 301.977783,517.770752 
	C293.026733,526.072327 282.001038,527.450378 270.157166,526.776367 
	C270.157166,531.065491 270.157166,534.698975 270.157135,539.281189 
z"/>
<path fill="#136F63" opacity="1.000000" stroke="none" 
	d="
M740.998657,391.000000 
	C740.998657,435.437500 740.998657,479.374969 740.998657,523.909607 
	C738.639160,523.909607 736.856934,523.909607 735.074646,523.909607 
	C626.768005,523.909607 518.461365,523.891113 410.154755,523.988464 
	C406.464386,523.991760 403.975006,522.927856 401.592957,520.131958 
	C394.584686,511.906189 386.873627,504.249939 380.219513,495.758118 
	C368.611267,480.943878 366.214844,463.674896 367.490540,445.308685 
	C368.781677,426.720367 375.406677,410.618805 388.305756,397.427612 
	C403.030365,382.369537 421.049835,374.704651 442.421570,374.745972 
	C520.235413,374.896423 598.049805,374.805359 675.863953,374.805298 
	C678.002014,374.805298 680.140076,374.805267 682.570251,374.805267 
	C684.523254,357.973236 682.378052,342.605072 671.720459,329.289062 
	C660.389832,315.132111 645.506165,308.329926 627.449829,308.073090 
	C587.543091,307.505493 553.047424,293.843933 524.715637,265.387543 
	C523.910034,264.578400 523.165344,263.708557 521.485107,261.879608 
	C532.372620,258.300842 542.447632,254.640640 552.726379,251.690277 
	C569.116699,246.985687 586.023438,244.930862 602.987488,245.218552 
	C650.028442,246.016296 691.681335,261.547516 728.323425,291.333710 
	C737.885315,299.106537 741.845764,307.130737 741.300049,319.531128 
	C740.260742,343.146088 740.998657,366.839294 740.998657,391.000000 
z"/>
<path fill="#FFBA08" opacity="1.000000" stroke="none" 
	d="
M265.000000,159.001160 
	C403.972717,159.001175 542.445435,158.992599 680.918152,159.008163 
	C709.993347,159.011429 732.620178,176.142792 739.340332,203.241409 
	C740.136963,206.453903 740.832458,209.793015 740.856812,213.078751 
	C740.998840,232.223038 740.926453,251.368912 740.926453,271.086151 
	C739.670837,270.353302 738.686401,269.918884 737.862671,269.277924 
	C694.605957,235.618134 645.511902,219.916519 590.844604,222.270645 
	C562.294434,223.500076 534.941284,230.441727 509.075165,242.725433 
	C505.704742,244.326019 503.587189,243.955582 500.696167,241.748917 
	C479.680695,225.708069 455.642151,220.514282 429.660034,222.226822 
	C379.044739,225.562958 334.131653,243.102890 295.268524,275.826721 
	C274.154785,293.605072 256.982117,314.652283 243.450989,338.691284 
	C242.884872,339.697021 242.299103,340.691742 241.342590,342.350281 
	C235.377808,340.091980 229.301758,338.028625 223.415161,335.520630 
	C201.288193,326.093414 181.557495,312.949188 164.180344,296.359283 
	C162.423004,294.681549 161.158554,291.584534 161.135925,289.132599 
	C160.912933,264.972748 160.959976,240.809937 161.011505,216.648132 
	C161.077820,185.551285 185.320557,160.244080 216.517395,159.203018 
	C232.496048,158.669769 248.504837,159.039505 265.000000,159.001160 
z"/>
<path fill="#3F88C5" opacity="1.000000" stroke="none" 
	d="
M422.159729,547.000366 
	C528.474609,546.899231 634.406067,546.899231 740.997925,546.899231 
	C740.997925,548.995605 740.997925,550.764954 740.997925,552.534241 
	C740.997925,566.362244 741.001587,580.190308 740.997131,594.018311 
	C740.986328,627.552612 715.991699,652.767944 682.330811,652.968262 
	C657.341309,653.116943 632.350159,652.997864 607.359741,652.997925 
	C558.211914,652.997986 509.064117,652.997925 459.916290,652.997925 
	C457.924225,652.997925 455.932159,652.997925 453.589020,652.997925 
	C452.783020,646.109680 452.075500,639.397400 451.201294,632.706848 
	C447.356659,603.283020 437.566986,575.899841 422.809296,550.224365 
	C422.274048,549.293152 422.112183,548.147339 422.159729,547.000366 
z"/>
<path fill="#FEFEFE" opacity="1.000000" stroke="none" 
	d="
M433.868042,351.676025 
	C388.595276,354.759003 349.365082,392.080536 345.095642,436.613190 
	C343.930145,448.769775 344.918671,461.132843 344.918671,473.737061 
	C338.152466,471.336884 331.381378,468.934998 324.164795,466.375031 
	C324.164795,458.319061 324.087402,450.016083 324.181366,441.715057 
	C324.360291,425.906738 323.816071,410.036438 325.025208,394.303558 
	C328.843414,344.622528 368.029633,300.811066 417.172424,291.182983 
	C426.989929,289.259521 437.255035,289.069061 447.309814,289.107391 
	C453.709137,289.131775 459.164032,292.790894 463.873413,297.573730 
	C449.036255,300.581665 442.293243,307.342743 441.944550,319.753571 
	C452.136169,319.753571 462.336487,319.753571 472.847137,319.753571 
	C472.847137,330.301208 472.847137,340.370178 472.847137,351.589264 
	C460.119324,351.589264 447.219818,351.589264 433.868042,351.676025 
z"/>
<path fill="#136F63" opacity="1.000000" stroke="none" 
	d="
M161.001373,339.015350 
	C161.001373,334.359955 161.001373,330.200867 161.001373,324.971954 
	C182.577255,341.881500 205.464172,354.982361 231.111450,363.350067 
	C228.542480,371.317383 225.961578,378.816803 223.707047,386.413116 
	C218.050858,405.470734 214.688049,424.951599 215.004944,444.845428 
	C215.484619,474.957825 201.958801,497.408051 178.151001,514.503601 
	C172.938095,518.246765 167.490021,521.662415 161.001373,525.996277 
	C161.001373,462.891357 161.001373,401.201508 161.001373,339.015350 
z"/>
<path fill="#FDFCFD" opacity="1.000000" stroke="none" 
	d="
M261.022705,415.154724 
	C259.589722,432.130676 258.194214,448.674744 256.759949,465.678650 
	C250.405060,467.748810 243.062958,470.140533 235.858887,472.487305 
	C237.505081,453.742096 238.228577,434.777954 241.003830,416.119049 
	C246.911438,376.400146 264.050964,341.638092 291.221893,312.153473 
	C331.668518,268.262787 382.106873,245.929825 441.727051,245.278580 
	C482.896423,244.828857 516.632080,278.706451 516.268860,319.844604 
	C516.189941,328.786713 513.070801,337.699493 511.380249,346.631104 
	C510.656982,350.452362 508.399475,351.707123 504.632599,351.226257 
	C502.186646,350.914032 499.668488,351.167480 496.486237,351.167480 
	C496.486237,341.148560 496.657532,331.389954 496.416382,321.641541 
	C496.289520,316.514526 495.995911,311.274597 494.824799,306.310425 
	C489.235229,282.617310 467.054810,265.223450 442.839111,265.167511 
	C355.035339,264.964691 280.376007,325.259705 261.858185,411.324554 
	C261.613434,412.461914 261.327148,413.590302 261.022705,415.154724 
z"/>
<path fill="#CF0000" opacity="1.000000" stroke="none" 
	d="
M653.583862,351.089539 
	C613.892334,351.090912 574.653748,351.090912 536.287354,351.090912 
	C537.596436,336.347504 538.864685,322.063568 540.146118,307.631439 
	C540.379456,307.729614 541.406311,308.045593 542.319336,308.562531 
	C568.127258,323.176086 595.767761,331.032776 625.506104,331.204468 
	C638.318726,331.278442 648.856262,335.674042 655.705811,347.112488 
	C657.028564,349.321472 658.005798,351.190887 653.583862,351.089539 
z"/>
<path fill="#FCFBFB" opacity="1.000000" stroke="none" 
	d="
M316.302917,586.841736 
	C314.946289,585.998718 313.332977,585.197205 313.282806,584.307617 
	C313.022705,579.697021 313.161835,575.063904 313.161835,569.801025 
	C325.517212,570.518494 336.873108,568.959839 346.027924,559.897583 
	C355.224518,550.793884 357.173584,539.582458 355.936096,527.124268 
	C361.919739,527.124268 367.299561,527.124268 372.668884,527.124268 
	C377.332642,558.973877 353.309845,586.822693 321.256378,586.842651 
	C319.760010,586.843567 318.263641,586.842712 316.302917,586.841736 
z"/>
<path fill="#FDFCFC" opacity="1.000000" stroke="none" 
	d="
M226.996445,621.986328 
	C226.996445,618.857056 226.996445,616.213928 226.996445,612.994629 
	C239.286667,613.705383 250.694244,612.041809 259.846893,603.037476 
	C269.058105,593.975403 270.993530,582.651489 270.037842,570.154175 
	C275.885925,570.154175 281.272552,570.154175 286.656494,570.154175 
	C291.339813,602.876160 265.378479,633.595825 226.996445,629.703369 
	C226.996445,627.339905 226.996445,624.906189 226.996445,621.986328 
z"/>
<path fill="#FDFCFD" opacity="1.000000" stroke="none" 
	d="
M194.578156,569.828674 
	C217.091263,566.382629 224.636307,556.461060 227.345581,527.099670 
	C232.706940,527.099670 238.099121,527.099670 243.486923,527.099670 
	C248.964966,561.405029 220.769592,589.832031 184.300537,586.493713 
	C184.300537,581.135803 184.300537,575.744324 184.300537,569.831604 
	C187.583374,569.831604 190.853683,569.831604 194.578156,569.828674 
z"/>
<path fill="#FDFCFC" opacity="1.000000" stroke="none" 
	d="
M298.839600,375.870239 
	C301.352509,371.399536 303.710358,367.267426 306.068176,363.135315 
	C306.512207,363.240082 306.956238,363.344818 307.400238,363.449554 
	C297.011749,395.848541 302.584503,429.202637 300.691254,462.215210 
	C294.340851,462.215210 288.084259,462.215210 281.453033,462.215210 
	C279.597656,431.810150 284.919830,403.179413 298.839600,375.870239 
z"/>
<path fill="#FCFBFB" opacity="1.000000" stroke="none" 
	d="
M270.157166,538.806763 
	C270.157166,534.698975 270.157166,531.065491 270.157166,526.776367 
	C282.001038,527.450378 293.026733,526.072327 301.977783,517.770752 
	C310.941650,509.457214 314.012665,498.973724 313.075287,486.264465 
	C319.126678,487.502563 324.549133,488.611969 329.792145,489.684692 
	C332.480286,514.348083 310.814606,547.503662 270.443878,543.500854 
	C270.351685,542.144226 270.254395,540.712708 270.157166,538.806763 
z"/>
</svg>