<?xml version="1.0" encoding="UTF-8"?>
<svg version="1.1" xmlns="http://www.w3.org/2000/svg" width="900" height="810">
<path d="M0 0 C2.02907105 -0.00417722 4.05813975 -0.00965686 6.08720416 -0.01631981 C11.64075394 -0.03074223 17.19415491 -0.02653967 22.74771273 -0.019153 C28.74581385 -0.01441569 34.74388304 -0.02693619 40.74197388 -0.03717041 C51.80622918 -0.05336063 62.87044563 -0.05580603 73.93470785 -0.05086542 C84.1590301 -0.04630232 94.38333479 -0.04691479 104.60765648 -0.05270576 C105.98091002 -0.05346264 107.35416356 -0.05421862 108.72741711 -0.05497371 C110.79697754 -0.05611895 112.86653797 -0.05726883 114.93609839 -0.05843295 C134.1689192 -0.06913291 153.40173417 -0.07386843 172.63455677 -0.06596279 C173.35905355 -0.06566562 174.08355033 -0.06536844 174.83000156 -0.06506227 C180.71282815 -0.06261351 186.59565467 -0.06000183 192.47848118 -0.05737813 C215.41973853 -0.04727783 238.36092266 -0.05562904 261.3021698 -0.07887268 C287.09884422 -0.10496733 312.89547458 -0.11778727 338.69216269 -0.11068493 C341.44484722 -0.10996891 344.19753175 -0.10929452 346.95021629 -0.10864449 C347.62795698 -0.10847468 348.30569767 -0.10830487 349.00397595 -0.10812991 C359.2173668 -0.10583067 369.43071663 -0.11378601 379.64409828 -0.12693596 C391.26503656 -0.14187183 402.88589565 -0.14228437 414.50683502 -0.12486505 C420.43274559 -0.11635826 426.35847325 -0.11419788 432.28437424 -0.1295166 C437.71579121 -0.14338292 443.1468689 -0.13857524 448.57826634 -0.11927737 C450.53643785 -0.11552304 452.49463666 -0.1184228 454.4527838 -0.12888902 C469.03312157 -0.20123953 482.24165137 1.20599068 495.35466003 8.20018005 C496.35759094 8.72164612 496.35759094 8.72164612 497.38078308 9.25364685 C502.7309799 12.10721519 507.49394204 15.28668605 511.97966003 19.38768005 C512.87169128 20.18818787 513.76372253 20.98869568 514.68278503 21.8134613 C529.93911539 36.21527042 538.43816113 55.5209514 539.97966003 76.38768005 C540.12558238 81.62708319 540.11919609 86.86485585 540.1133728 92.10574341 C540.11524291 93.70395629 540.11754441 95.30216872 540.12023813 96.90038043 C540.12633788 101.27683358 540.12622468 105.65326758 540.12504375 110.029724 C540.12483928 114.7558521 540.13036293 119.48197412 540.13510132 124.20809937 C540.14339852 133.46196286 540.14615574 142.71581998 540.1467137 151.96968689 C540.14718932 159.49414371 540.14924636 167.01859843 540.15241432 174.54305458 C540.16121851 195.88992405 540.16583409 217.23678849 540.16508385 238.58365979 C540.16502391 240.30894108 540.16502391 240.30894108 540.16496277 242.06907654 C540.16490145 243.79647155 540.16490145 243.79647155 540.16483889 245.55876342 C540.16443253 264.21760389 540.17400017 282.87642416 540.18810114 301.53525879 C540.20247535 320.70740315 540.20937074 339.87953766 540.20850736 359.05168754 C540.20817574 369.80997655 540.21090735 380.5682444 540.22168541 391.32652855 C540.23080418 400.48708127 540.23295436 409.64760324 540.22617599 418.80815854 C540.22291769 423.47821651 540.2228291 428.14821551 540.23152924 432.81826782 C540.23942577 437.10117272 540.23793081 441.3839722 540.2292451 445.66687462 C540.22771703 447.20856771 540.22949988 448.7502688 540.23510518 450.29195245 C540.32676266 477.31111874 533.62241846 499.14733481 514.85466003 518.95018005 C506.12406126 527.48968501 495.57331126 533.5502493 483.97966003 537.38768005 C483.23804558 537.63537032 482.49643112 537.88306058 481.73234349 538.13825661 C471.85304715 541.03365803 462.15419173 540.80958135 451.95932007 540.77536011 C449.93024902 540.77953732 447.90118032 540.78501697 445.87211591 540.79167992 C440.31856613 540.80610234 434.76516516 540.80189977 429.21160734 540.79451311 C423.21350621 540.7897758 417.21543702 540.8022963 411.21734619 540.81253052 C400.15309089 540.82872074 389.08887444 540.83116614 378.02461222 540.82622553 C367.80028997 540.82166243 357.57598528 540.8222749 347.35166359 540.82806587 C345.97841005 540.82882275 344.6051565 540.82957873 343.23190296 540.83033382 C341.16234253 540.83147905 339.0927821 540.83262894 337.02322168 540.83379306 C317.79040087 540.84449302 298.5575859 540.84922854 279.3247633 540.8413229 C278.60026652 540.84102573 277.87576974 540.84072855 277.12931851 540.84042237 C271.24649192 540.83797362 265.3636654 540.83536194 259.48083889 540.83273824 C236.53958154 540.82263794 213.59839741 540.83098914 190.65715027 540.85423279 C164.86047584 540.88032744 139.06384549 540.89314737 113.26715738 540.88604504 C110.51447285 540.88532902 107.76178832 540.88465463 105.00910378 540.88400459 C104.33136309 540.88383478 103.6536224 540.88366497 102.95534412 540.88349002 C92.74195326 540.88119078 82.52860344 540.88914611 72.31522179 540.90229607 C60.69428351 540.91723194 49.07342442 540.91764448 37.45248505 540.90022516 C31.52657447 540.89171837 25.60084682 540.88955799 19.67494583 540.90487671 C14.24352885 540.91874302 8.81245117 540.91393534 3.38105372 540.89463747 C1.42288222 540.89088315 -0.5353166 540.89378291 -2.49346373 540.90424912 C-17.0738015 540.97659964 -30.2823313 539.56936942 -43.39533997 532.57518005 C-44.06396057 532.22753601 -44.73258118 531.87989197 -45.42146301 531.52171326 C-50.77165983 528.66814492 -55.53462197 525.48867406 -60.02033997 521.38768005 C-61.35838684 520.18691833 -61.35838684 520.18691833 -62.72346497 518.9618988 C-77.97979532 504.56008968 -86.47884106 485.25440871 -88.02033997 464.38768005 C-88.16626231 459.14827691 -88.15987602 453.91050426 -88.15405273 448.6696167 C-88.15592284 447.07140381 -88.15822434 445.47319138 -88.16091806 443.87497967 C-88.16701781 439.49852653 -88.16690462 435.12209253 -88.16572368 430.74563611 C-88.16551921 426.01950801 -88.17104286 421.29338599 -88.17578125 416.56726074 C-88.18407845 407.31339725 -88.18683567 398.05954012 -88.18739363 388.80567322 C-88.18786925 381.2812164 -88.18992629 373.75676168 -88.19309425 366.23230553 C-88.20189844 344.88543606 -88.20651402 323.53857161 -88.20576378 302.19170032 C-88.20572382 301.04151279 -88.20568387 299.89132526 -88.2056427 298.70628357 C-88.20560182 297.5546869 -88.20556094 296.40309023 -88.20551882 295.21659669 C-88.20511246 276.55775622 -88.2146801 257.89893594 -88.22878107 239.24010132 C-88.24315528 220.06795696 -88.25005067 200.89582245 -88.24918729 181.72367257 C-88.24885567 170.96538356 -88.25158729 160.20711571 -88.26236534 149.44883156 C-88.27148411 140.28827884 -88.27363429 131.12775687 -88.26685592 121.96720157 C-88.26359762 117.2971436 -88.26350903 112.6271446 -88.27220917 107.95709229 C-88.2801057 103.67418739 -88.27861074 99.39138791 -88.26992504 95.10848548 C-88.26839696 93.56679239 -88.27017982 92.02509131 -88.27578511 90.48340765 C-88.36744259 63.46424137 -81.66309839 41.6280253 -62.89533997 21.82518005 C-54.1647412 13.2856751 -43.61399119 7.22511081 -32.02033997 3.38768005 C-31.27872551 3.13998979 -30.53711105 2.89229953 -29.77302343 2.6371035 C-19.89372708 -0.25829792 -10.19487166 -0.03422124 0 0 Z " fill="#420317" transform="translate(224.0203399658203,134.61231994628906)"/>
<path d="M0 0 C1.22460938 0.48855469 2.44921875 0.97710937 3.7109375 1.48046875 C26.48563092 10.77025799 46.67606724 25.67606724 64 43 C64.19357255 45.90838618 64.26035345 48.72123446 64.24050903 51.63052368 C64.24307231 52.98678456 64.24307231 52.98678456 64.24568737 54.37044466 C64.24899741 57.41842893 64.23795373 60.46619596 64.22705078 63.51416016 C64.22648699 65.69176732 64.22680259 67.86937487 64.22793579 70.04698181 C64.22851157 75.97439332 64.21672086 81.90172452 64.20278788 87.8291173 C64.190318 94.0177778 64.18911298 100.20643996 64.18673706 106.39511108 C64.18086556 117.45397159 64.16640841 128.51279873 64.14745162 139.57164399 C64.12355595 153.58578604 64.1111966 167.5999235 64.10064721 181.61408162 C64.07972029 209.07607503 64.044523 236.53803544 64 264 C21.20450588 264.22886355 -21.59091766 264.40508358 -64.38690245 264.51065329 C-69.43876279 264.52316044 -74.49062193 264.53610365 -79.54248047 264.54931641 C-80.54821916 264.55193951 -81.55395786 264.55456261 -82.59017348 264.55726521 C-98.87736973 264.60078451 -115.1642132 264.67963327 -131.45120013 264.77152796 C-148.16184013 264.86502698 -164.87229531 264.92058425 -181.58318615 264.94088495 C-191.89583605 264.95460991 -202.20748886 264.99796387 -212.51983184 265.07916467 C-219.59040166 265.13200492 -226.66045567 265.14800583 -233.73120862 265.13501377 C-237.81177058 265.1286048 -241.89058996 265.13845854 -245.97084236 265.19205475 C-249.70880657 265.240796 -253.44386078 265.24314026 -257.18196023 265.20898895 C-259.17048745 265.20277531 -261.15898128 265.24585151 -263.14700985 265.29081309 C-271.67939406 265.14803343 -271.67939406 265.14803343 -275.48344421 261.84108424 C-277.50910857 259.31312243 -279.23927939 256.71562487 -281 254 C-282.29983602 252.56782618 -283.62901925 251.16109907 -285 249.796875 C-302.6299834 231.97629719 -310.26769076 214.6086464 -310.3190918 189.31933594 C-310.21718652 180.60150397 -309.0226879 173.22842818 -306 165 C-305.62617188 163.93652344 -305.25234375 162.87304688 -304.8671875 161.77734375 C-297.34423412 142.07318439 -282.16419922 128.86073061 -263.75 119.54296875 C-255.35511518 115.84775502 -247.10529713 114.55633467 -237.99641418 114.63923645 C-236.94570966 114.63667318 -235.89500513 114.6341099 -234.81246108 114.63146895 C-231.32248607 114.62656198 -227.83295214 114.64297307 -224.34301758 114.65942383 C-221.82911184 114.66027077 -219.31520536 114.65979366 -216.80130005 114.65809631 C-211.40481352 114.65741509 -206.00846682 114.66587566 -200.61200905 114.68280983 C-192.809841 114.70727712 -185.00772546 114.71501297 -177.20552322 114.7187738 C-164.54445623 114.72532622 -151.8834475 114.7452544 -139.22241211 114.77368164 C-126.92944631 114.80125363 -114.63649637 114.82247181 -102.34350586 114.83520508 C-101.58471195 114.83599325 -100.82591803 114.83678142 -100.04413036 114.83759347 C-96.23716927 114.84150882 -92.43020807 114.84529989 -88.62324679 114.84902918 C-57.08212218 114.88008738 -25.54106997 114.93311437 6 115 C5.87815008 111.48260458 5.74115628 107.96595114 5.6015625 104.44921875 C5.56748291 103.46014526 5.53340332 102.47107178 5.49829102 101.45202637 C4.9787767 88.82363037 1.51645012 79.28566858 -6 69 C-6.91458984 67.74703125 -6.91458984 67.74703125 -7.84765625 66.46875 C-16.23730743 56.84577441 -30.50470414 49.69034401 -43.21362305 48.76635742 C-44.46699463 48.71326416 -45.72036621 48.6601709 -47.01171875 48.60546875 C-48.41541496 48.53980525 -49.8190596 48.4730319 -51.22265625 48.40527344 C-51.95242676 48.37042847 -52.68219727 48.3355835 -53.43408203 48.29968262 C-65.98013158 47.67509868 -77.96089036 46.8550766 -90 43 C-90.65677734 42.8045459 -91.31355469 42.6090918 -91.99023438 42.40771484 C-109.32587822 37.22595425 -126.18893426 28.73940588 -140 17 C-141.36898437 15.83791016 -141.36898437 15.83791016 -142.765625 14.65234375 C-147.2851988 10.69441289 -151.22169503 6.65791036 -155 2 C-143.224014 -3.23209621 -131.54304614 -7.0692771 -119 -10 C-117.75089844 -10.29777344 -116.50179687 -10.59554687 -115.21484375 -10.90234375 C-111.81964846 -11.6717172 -108.42132662 -12.35749735 -105 -13 C-103.96359375 -13.20625 -102.9271875 -13.4125 -101.859375 -13.625 C-67.72413322 -19.34066839 -31.67632425 -13.3229205 0 0 Z " fill="#136E62" transform="translate(676,259)"/>
<path d="M0 0 C0.81943171 -0.00320648 1.63886343 -0.00641296 2.4831264 -0.0097166 C5.22263461 -0.01800277 7.9619234 -0.01209714 10.70143509 -0.00622082 C12.68794246 -0.00924214 14.67444866 -0.01313152 16.66095281 -0.01781338 C22.11528926 -0.02810478 27.56956007 -0.02590863 33.02390194 -0.02163279 C38.9081703 -0.01916762 44.79242277 -0.02817718 50.67668533 -0.03567028 C62.20334887 -0.0484255 73.72998912 -0.05020991 85.25665852 -0.04787002 C94.62612407 -0.04603657 103.99558277 -0.04779805 113.36504745 -0.05209446 C114.7116894 -0.05269686 116.05833134 -0.05329806 117.40497328 -0.05389806 C119.43430883 -0.05480533 121.46364437 -0.055714 123.49297991 -0.05663041 C142.35927289 -0.06505917 161.22556331 -0.06939622 180.09185791 -0.06522369 C180.80296581 -0.06506732 181.5140737 -0.06491094 182.24673032 -0.06474983 C185.85080492 -0.06394406 189.45487951 -0.06309829 193.05895409 -0.06223653 C193.77471792 -0.06206544 194.49048175 -0.06189435 195.2279354 -0.06171808 C196.67538399 -0.06137142 198.12283259 -0.06102289 199.57028118 -0.06067249 C222.08791194 -0.0553164 244.60550353 -0.06324284 267.12312698 -0.08170605 C292.43008337 -0.10243212 317.73701549 -0.11314752 343.04398084 -0.10913056 C345.74359337 -0.10873523 348.44320591 -0.10837368 351.14281845 -0.10803318 C351.8075159 -0.10794245 352.47221336 -0.10785172 353.15705316 -0.10775824 C363.18234299 -0.10659327 373.20760726 -0.11326929 383.23289108 -0.1238451 C394.63844397 -0.13575515 406.04393922 -0.13716803 417.4494929 -0.12505493 C423.26763816 -0.11916342 429.08567797 -0.11807445 434.90381622 -0.13005733 C440.2334105 -0.14090634 445.56281117 -0.13782428 450.89239636 -0.12379565 C452.81698779 -0.12114602 454.74159434 -0.12352359 456.66617092 -0.13153151 C476.0952318 -0.20674045 493.04834337 3.13715336 507.52156448 17.25447559 C519.86322392 31.3507799 523.85931271 44.66303138 523.71687698 63.03572559 C523.71314054 64.45918547 523.71029655 65.88264795 523.70830154 67.30611134 C523.70071474 71.02806843 523.68110967 74.74986607 523.65889359 78.47176075 C523.63832762 82.27951877 523.62927698 86.08730288 523.61922073 89.89510059 C523.59785838 97.34829779 523.56378334 104.80136423 523.52156448 112.25447559 C520.81375704 110.92792104 518.40230954 109.54208392 515.97468948 107.75056934 C506.49460323 100.84872066 496.94846647 94.62654146 486.52156448 89.25447559 C485.72766312 88.84455372 484.93376175 88.43463184 484.11580276 88.01228809 C432.19932691 61.53759304 372.21947235 56.96366249 316.52156448 74.25447559 C309.75891914 76.65801684 303.14795603 79.38055059 296.55672073 82.21541309 C289.38306699 85.21358222 289.38306699 85.21358222 285.52156448 85.25447559 C283.31062698 84.10213184 283.31062698 84.10213184 281.14656448 82.31697559 C255.69437474 63.17999082 223.89753949 61.40332417 193.32185745 65.70564747 C173.07073298 68.91777388 153.34850202 74.11987021 134.52156448 82.25447559 C133.42594193 82.71974659 133.42594193 82.71974659 132.30818558 83.194417 C109.58019253 92.95563318 89.05019043 106.80906514 71.13484573 123.81697559 C69.25171859 125.57343499 67.37664828 127.22134673 65.38875198 128.84822559 C63.12954913 130.74423235 61.22889935 132.51928165 59.33406448 134.75447559 C58.45234573 135.79281544 58.45234573 135.79281544 57.55281448 136.85213184 C56.88250198 137.64490528 56.21218948 138.43767872 55.52156448 139.25447559 C54.70687698 140.18131153 53.89218948 141.10814747 53.05281448 142.06306934 C41.96432171 154.75444914 32.5145166 168.42049681 24.52156448 183.25447559 C17.40192267 181.91224804 11.14038704 179.67620261 4.52156448 176.75447559 C3.51408157 176.31087696 2.50659866 175.86727833 1.46858597 175.41023731 C-19.96763758 165.77678246 -39.83428232 151.89862879 -56.47843552 135.25447559 C-56.68754255 132.5522271 -56.77208163 129.95162807 -56.76896286 127.24739552 C-56.77568008 126.41942463 -56.78239731 125.59145374 -56.78931808 124.73839283 C-56.8083885 121.98718293 -56.81222847 119.23621635 -56.81437302 116.48494434 C-56.82080065 114.56838347 -56.82752899 112.65182359 -56.83454514 110.73526478 C-56.84654467 106.7059194 -56.85022381 102.67665986 -56.84904099 98.64729786 C-56.84883901 93.5142119 -56.87600277 88.38168718 -56.9105854 83.24873352 C-56.93297648 79.28240978 -56.93687461 75.31621774 -56.93582153 71.3498373 C-56.93816449 69.45983245 -56.94691346 67.56982324 -56.96248627 65.6798811 C-57.10691415 46.31954843 -53.19328813 30.71864963 -39.47843552 16.25447559 C-28.01814937 6.18671025 -15.36384174 -0.09020105 0 0 Z " fill="#FEB908" transform="translate(216.47843551635742,157.7455244064331)"/>
<path d="M0 0 C105.6 0 211.2 0 320 0 C320 68.05228758 320 68.05228758 308 84 C307.50113281 84.70382812 307.00226563 85.40765625 306.48828125 86.1328125 C297.97499365 97.06927768 283.53689808 104.17146061 270 106 C266.74727376 106.13992022 263.49838657 106.13069095 260.24307251 106.12025452 C258.77755449 106.12153615 258.77755449 106.12153615 257.28243005 106.12284368 C254.01199846 106.12448946 250.74161827 106.11899186 247.47119141 106.11352539 C245.12550864 106.1132433 242.77982578 106.11340168 240.43414307 106.1139679 C234.06692511 106.11425501 227.69972596 106.10837211 221.33251238 106.10139394 C215.35227157 106.09577913 209.37203075 106.09477081 203.39178781 106.09374207 C191.54878598 106.09155485 179.70579105 106.08490369 167.86279297 106.07543945 C156.36018915 106.06625681 144.85758721 106.05918014 133.35498047 106.05493164 C132.64565186 106.05466892 131.93632326 106.05440619 131.20549984 106.05413551 C127.6469147 106.05283045 124.08832955 106.05156674 120.52974439 106.05032361 C91.01982514 106.03996126 61.50991269 106.02227744 32 106 C31.89355667 105.09772171 31.78711334 104.19544342 31.67744446 103.26582336 C31.27183838 99.85388822 30.86049885 96.44273862 30.44551086 93.03193665 C30.26849666 91.56770661 30.09364007 90.10321379 29.92115784 88.63844299 C26.11061987 56.33086566 14.44172259 28.88344518 0 0 Z " fill="#3F87C4" transform="translate(420,546)"/>
<path d="M0 0 C0.33 0.66 0.66 1.32 1 2 C0.443125 2.07476562 -0.11375 2.14953125 -0.6875 2.2265625 C-7.66262804 3.42835821 -12.8931995 6.08507221 -17.3515625 11.703125 C-20.00768625 15.94527948 -20.25798482 18.80589374 -21 24 C-10.77 24 -0.54 24 10 24 C10 34.23 10 44.46 10 55 C7.17695313 55.02578125 4.35390625 55.0515625 1.4453125 55.078125 C-1.35507267 55.11677523 -4.15528772 55.16186026 -6.95556641 55.20751953 C-8.86954324 55.23536967 -10.78362741 55.25675852 -12.69775391 55.27099609 C-42.32993533 55.50432036 -69.55367466 63.46908719 -91.03515625 84.8125 C-102.40263163 96.70621332 -111.07132325 112.02159344 -115 128 C-115.37789673 129.36294189 -115.37789673 129.36294189 -115.76342773 130.75341797 C-117.87343663 138.85009932 -118.40965258 146.568644 -118.28125 154.89575195 C-118.24965593 156.95998046 -118.24021571 159.02344228 -118.234375 161.08789062 C-118.19499206 166.82477323 -118.07330396 172.34364513 -117 178 C-121.81600823 177.23754579 -126.24615702 175.58720144 -130.8125 173.9375 C-131.60076172 173.65583984 -132.38902344 173.37417969 -133.20117188 173.08398438 C-135.13522289 172.39241462 -137.06776488 171.69662722 -139 171 C-139.09363412 161.82746552 -139.16422985 152.6551013 -139.20724869 143.48218918 C-139.2279196 139.22053622 -139.25585004 134.95921565 -139.30175781 130.69775391 C-139.67815886 94.79420194 -135.51422538 63.65416793 -112 35 C-111.30261719 34.14921875 -110.60523438 33.2984375 -109.88671875 32.421875 C-90.27572085 9.62005661 -61.36925337 -5.27870659 -31.30859375 -7.87109375 C-19.26851577 -8.54338237 -9.80440585 -7.57840554 0 0 Z " fill="#FDFDFD" transform="translate(462,295)"/>
<path d="M0 0 C6.64593301 4.43062201 6.64593301 4.43062201 9.53125 6.59375 C25.742707 18.53198885 43.16527961 27.91230124 62 35 C63.1142334 35.41934814 63.1142334 35.41934814 64.25097656 35.84716797 C66.16646487 36.56705201 68.08312115 37.28382686 70 38 C69.38500246 41.33360392 68.58381257 44.48848836 67.51171875 47.703125 C59.45793306 72.18414723 55.17661169 95.62370529 54.625 121.5 C54.0206547 144.47877894 46.45439543 162.95300363 30 179 C29.13503906 179.86238281 28.27007812 180.72476563 27.37890625 181.61328125 C22.28592549 186.47923464 16.89406004 190.63952747 11.0625 194.5625 C10.42344727 194.99256348 9.78439453 195.42262695 9.12597656 195.86572266 C6.01126479 197.89730787 3.65176556 199.08705861 0 200 C0 134 0 68 0 0 Z " fill="#136E62" transform="translate(160,324)"/>
<path d="M0 0 C14.00474616 12.54052461 23.66130484 30.00988602 24.73950195 48.94628906 C25.17377685 62.23693166 24.36435018 75.0090926 18.3215332 87.09472656 C13.7015332 87.09472656 9.0815332 87.09472656 4.3215332 87.09472656 C4.3121875 85.84973389 4.3028418 84.60474121 4.29321289 83.32202148 C4.25302609 78.65679508 4.18719021 73.99220842 4.11401367 69.32739258 C4.08596927 67.31706017 4.06467341 65.30662089 4.05053711 63.29614258 C4.1211057 47.72696379 4.1211057 47.72696379 -0.6784668 33.09472656 C-1.05600098 32.29623291 -1.43353516 31.49773926 -1.82250977 30.67504883 C-8.41388962 17.1391244 -20.13851474 8.66989899 -34.07299805 3.82128906 C-64.47288123 -4.65603968 -102.30528658 6.59891177 -129.6784668 20.09472656 C-130.40549805 20.44937988 -131.1325293 20.8040332 -131.8815918 21.16943359 C-155.19472604 32.65549242 -176.82696477 49.42390341 -192.6784668 70.09472656 C-193.38229492 70.97128906 -194.08612305 71.84785156 -194.8112793 72.75097656 C-209.49597883 91.48844264 -220.5461893 113.07510028 -226.6784668 136.09472656 C-226.94014648 136.95582031 -227.20182617 137.81691406 -227.47143555 138.70410156 C-233.28941885 159.14087541 -233.28572628 181.00390966 -233.6784668 202.09472656 C-236.19896072 202.88748696 -238.71984693 203.67896121 -241.2409668 204.46972656 C-241.94543945 204.69144531 -242.64991211 204.91316406 -243.37573242 205.14160156 C-247.79288366 206.52577799 -252.22232223 207.84161889 -256.6784668 209.09472656 C-256.47821899 208.09227905 -256.47821899 208.09227905 -256.27392578 207.06958008 C-254.75336915 198.8320216 -254.21587871 190.66491117 -253.84558105 182.31799316 C-253.24081424 169.10415586 -252.5267751 156.04636365 -249.6784668 143.09472656 C-249.4933252 142.23121582 -249.30818359 141.36770508 -249.11743164 140.47802734 C-241.48770804 105.90489537 -224.94163819 75.50541593 -201.6784668 49.09472656 C-201.23970215 48.59279785 -200.8009375 48.09086914 -200.34887695 47.57373047 C-195.12773338 41.61924734 -189.81193392 36.10101678 -183.6784668 31.09472656 C-183.17250977 30.6711084 -182.66655273 30.24749023 -182.14526367 29.81103516 C-172.49631853 21.73793668 -162.45818212 14.58323627 -151.6784668 8.09472656 C-150.76726074 7.54606934 -150.76726074 7.54606934 -149.83764648 6.98632812 C-108.24849245 -17.57964472 -40.20527725 -34.74729444 0 0 Z " fill="#FCFBFB" transform="translate(490.678466796875,262.9052734375)"/>
<path d="M0 0 C3.52578461 1.32049348 6.82822231 2.91625249 10.16040039 4.66479492 C33.34074667 16.73171061 58.17638225 22.94964787 84.28710938 23.4296875 C95.5987529 23.78902495 104.35030377 26.52911193 113 34 C115.83998975 37.11441573 118 39.62490593 118 44 C77.74 44 37.48 44 -4 44 C-3.34 40.7 -2.68 37.4 -2 34 C0.15967549 22.61504401 0.2091175 11.54793288 0 0 Z " fill="#CE0000" transform="translate(538,306)"/>
<path d="M0 0 C5.61 0 11.22 0 17 0 C17.5444101 17.9655333 15.12698583 31.45617296 2.5625 45.125 C-10.74883228 57.85408697 -25.21217203 60.32341505 -43 60 C-43 54.39 -43 48.78 -43 43 C-40.215625 42.7525 -37.43125 42.505 -34.5625 42.25 C-23.52351898 41.09043903 -15.72239 38.31252897 -8 30 C-2.69797994 23.04278079 -0.7510868 16.26073708 -0.375 7.625 C-0.189375 3.850625 -0.189375 3.850625 0 0 Z " fill="#FBFAFA" transform="translate(355,526)"/>
<path d="M0 0 C5.61 0 11.22 0 17 0 C17.59300165 18.23480081 14.58233384 31.71020458 2.0625 45.6875 C-7.08279589 54.42424315 -20.50877684 60.28076456 -33.18945312 60.18017578 C-33.95193359 60.16196777 -34.71441406 60.14375977 -35.5 60.125 C-39.2125 60.063125 -39.2125 60.063125 -43 60 C-43 54.39 -43 48.78 -43 43 C-40.73125 42.9175 -38.4625 42.835 -36.125 42.75 C-25.1549476 42.14259976 -16.10564072 38.46233001 -8.375 30.4375 C-0.8370082 21.36522668 -0.4141462 11.28548388 0 0 Z " fill="#FCFBFC" transform="translate(269,569)"/>
<path d="M0 0 C5.61 0 11.22 0 17 0 C17.46777914 16.8400491 14.99539164 30.11009248 3.6875 43.3125 C-4.24950732 51.67281438 -16.14692087 59.44477923 -28.01464844 60.11352539 C-28.7059082 60.10828857 -29.39716797 60.10305176 -30.109375 60.09765625 C-31.1298291 60.09390991 -31.1298291 60.09390991 -32.17089844 60.09008789 C-33.02200195 60.08098389 -33.87310547 60.07187988 -34.75 60.0625 C-37.4725 60.041875 -40.195 60.02125 -43 60 C-43 54.39 -43 48.78 -43 43 C-40.7725 42.938125 -38.545 42.87625 -36.25 42.8125 C-25.44596142 42.2165938 -16.71361723 38.68414443 -8.83984375 31.109375 C-6.11848742 27.98934864 -4.42401529 24.86857488 -3 21 C-2.608125 19.96875 -2.21625 18.9375 -1.8125 17.875 C-0.57005712 11.94950317 -0.34527055 6.04223471 0 0 Z " fill="#FCFBFB" transform="translate(226,526)"/>
<path d="M0 0 C1.44583474 4.33750421 -0.13583942 7.8853522 -1.35351562 12.140625 C-4.72182428 24.59242308 -5.30908295 37.29291764 -5.4140625 50.12109375 C-5.43283818 51.6018219 -5.45241595 53.08254008 -5.4727478 54.56324768 C-5.52340098 58.40497873 -5.56337748 62.24674424 -5.60089111 66.08862305 C-5.64135743 70.03116906 -5.69225191 73.97358019 -5.7421875 77.91601562 C-5.83815219 85.61059016 -5.92183525 93.30522028 -6 101 C-12.6 101 -19.2 101 -26 101 C-26.97746754 64.04629676 -19.96580157 31.46126308 0 0 Z " fill="#FBFAFA" transform="translate(306,360)"/>
<path d="M0 0 C6.16618181 -0.40214229 11.17745757 1.03181664 17 3 C18.17385645 17.15149164 13.10087016 29.51143381 4.12109375 40.24609375 C-4.26117644 49.20411583 -15.84208363 55.1816606 -28 57 C-30.61715522 57.06780195 -33.1979713 57.09477108 -35.8125 57.0625 C-38.184375 57.041875 -40.55625 57.02125 -43 57 C-43 51.39 -43 45.78 -43 40 C-40.916875 39.9175 -38.83375 39.835 -36.6875 39.75 C-25.50605443 38.94728753 -16.20065334 35.59688895 -8.375 27.375 C-1.50087148 19.11692082 -0.32936008 10.50658671 0 0 Z " fill="#FBFAFA" transform="translate(312,486)"/>
</svg>
